<svg xmlns="http://www.w3.org/2000/svg" viewBox="0 0 500 500"><g id="freepik--background-complete--inject-2"><rect x="416.78" y="398.49" width="33.12" height="0.25" style="fill:#ebebeb"></rect><rect x="322.53" y="401.21" width="8.69" height="0.25" style="fill:#ebebeb"></rect><rect x="396.59" y="389.21" width="19.19" height="0.25" style="fill:#ebebeb"></rect><rect x="52.46" y="390.89" width="43.19" height="0.25" style="fill:#ebebeb"></rect><rect x="104.56" y="390.89" width="6.33" height="0.25" style="fill:#ebebeb"></rect><rect x="131.47" y="395.11" width="93.68" height="0.25" style="fill:#ebebeb"></rect><path d="M237,337.8H43.92a5.71,5.71,0,0,1-5.71-5.71V60.66A5.71,5.71,0,0,1,43.92,55H237a5.71,5.71,0,0,1,5.71,5.71V332.09A5.71,5.71,0,0,1,237,337.8ZM43.92,55.2a5.47,5.47,0,0,0-5.46,5.46V332.09a5.47,5.47,0,0,0,5.46,5.46H237a5.47,5.47,0,0,0,5.46-5.46V60.66A5.47,5.47,0,0,0,237,55.2Z" style="fill:#ebebeb"></path><path d="M453.31,337.8H260.21a5.72,5.72,0,0,1-5.71-5.71V60.66A5.72,5.72,0,0,1,260.21,55h193.1A5.71,5.71,0,0,1,459,60.66V332.09A5.71,5.71,0,0,1,453.31,337.8ZM260.21,55.2a5.47,5.47,0,0,0-5.46,5.46V332.09a5.47,5.47,0,0,0,5.46,5.46h193.1a5.47,5.47,0,0,0,5.46-5.46V60.66a5.47,5.47,0,0,0-5.46-5.46Z" style="fill:#ebebeb"></path><rect y="382.4" width="500" height="0.25" style="fill:#ebebeb"></rect><path d="M377.83,215.16h58.29a11.19,11.19,0,0,0,10.23-15.67c-3.87-8.89-12.1-13.71-19.54-7-11.19,10-10.66-9.43-24.05-6.7-11.71,2.39-10.1,13.92-17.27,16.29S368.42,212.51,377.83,215.16Z" style="fill:#fafafa"></path><path d="M285.48,110.4H328A8.17,8.17,0,0,0,335.5,99c-2.83-6.49-8.84-10-14.26-5.14-8.17,7.34-7.79-6.88-17.56-4.88-8.55,1.74-7.37,10.16-12.61,11.88S278.62,108.46,285.48,110.4Z" style="fill:#fafafa"></path><path d="M369.68,382.52h-7V158.67a22.75,22.75,0,0,1,22.72-22.73h6.19v7H385.4a15.74,15.74,0,0,0-15.72,15.73Z" style="fill:#f0f0f0"></path><rect x="391.59" y="100" width="26.54" height="74.98" style="fill:#ebebeb"></rect><path d="M391.59,175h26.54a0,0,0,0,1,0,0v.14a5.17,5.17,0,0,1-5.17,5.17h-16.2a5.17,5.17,0,0,1-5.17-5.17V175A0,0,0,0,1,391.59,175Z" style="fill:#e6e6e6"></path><circle cx="404.86" cy="115.5" r="8.23" style="fill:#f0f0f0"></circle><circle cx="404.86" cy="113.5" r="8.23" style="fill:#fafafa"></circle><circle cx="404.86" cy="138" r="8.23" style="fill:#f0f0f0"></circle><circle cx="404.86" cy="136" r="8.23" style="fill:#fafafa"></circle><circle cx="404.86" cy="160.5" r="8.23" style="fill:#f0f0f0"></circle><circle cx="404.86" cy="158.5" r="8.23" style="fill:#fafafa"></circle><rect x="390.72" y="317.05" width="46.19" height="20.16" style="fill:#ebebeb"></rect><rect x="387.5" y="314.26" width="6.43" height="25.74" style="fill:#f5f5f5"></rect><rect x="433.69" y="314.26" width="6.43" height="25.74" style="fill:#f5f5f5"></rect><path d="M386.36,323.92h4.36a0,0,0,0,1,0,0v6.43a0,0,0,0,1,0,0h-4.36a2.08,2.08,0,0,1-2.08-2.08V326A2.08,2.08,0,0,1,386.36,323.92Z" style="fill:#f5f5f5"></path><path d="M439,323.92h4.36a0,0,0,0,1,0,0v6.43a0,0,0,0,1,0,0H439a2.08,2.08,0,0,1-2.08-2.08V326A2.08,2.08,0,0,1,439,323.92Z" transform="translate(880.25 654.27) rotate(180)" style="fill:#f5f5f5"></path><path d="M426.22,374H401.4V304.3a12.41,12.41,0,0,1,12.41-12.41h0a12.4,12.4,0,0,1,12.41,12.41Z" style="fill:#f5f5f5"></path><path d="M403.07,369.81h21.49A6.15,6.15,0,0,1,430.7,376v6.57a0,0,0,0,1,0,0H396.92a0,0,0,0,1,0,0V376A6.15,6.15,0,0,1,403.07,369.81Z" style="fill:#ebebeb"></path><circle cx="413.81" cy="327.09" r="10.62" style="fill:#fafafa"></circle><path d="M416.34,327.09a2.53,2.53,0,1,1-2.53-2.52A2.53,2.53,0,0,1,416.34,327.09Z" style="fill:#ebebeb"></path><path d="M396.92,307.83h0a3.22,3.22,0,0,1,3.22-3.22h27.35a3.22,3.22,0,0,1,3.21,3.22h0a3.22,3.22,0,0,1-3.21,3.22H400.14A3.22,3.22,0,0,1,396.92,307.83Z" style="fill:#f0f0f0"></path><path d="M408.41,343.49h0a3.22,3.22,0,0,1,3.22,3.21v16.63a3.22,3.22,0,0,1-3.22,3.22h0a3.22,3.22,0,0,1-3.21-3.22V346.7A3.21,3.21,0,0,1,408.41,343.49Z" style="fill:#ebebeb"></path><path d="M419.21,343.49h0a3.22,3.22,0,0,1,3.22,3.21v16.63a3.22,3.22,0,0,1-3.22,3.22h0a3.22,3.22,0,0,1-3.21-3.22V346.7A3.21,3.21,0,0,1,419.21,343.49Z" style="fill:#ebebeb"></path><path d="M72.05,382.67H69.59a1.27,1.27,0,0,1-1.27-1.32L71,320.92H77.3l-4,60.57A1.27,1.27,0,0,1,72.05,382.67Z" style="fill:#f0f0f0"></path><path d="M82.38,382.67H79.92a1.26,1.26,0,0,1-1.26-1.32l2.65-60.43h6.32l-4,60.57A1.26,1.26,0,0,1,82.38,382.67Z" style="fill:#f0f0f0"></path><path d="M111.08,382.67h2.46a1.27,1.27,0,0,0,1.27-1.32l-2.66-60.43h-6.32l4,60.57A1.26,1.26,0,0,0,111.08,382.67Z" style="fill:#f0f0f0"></path><path d="M121.26,382.67h2.46a1.27,1.27,0,0,0,1.27-1.32l-2.65-60.43H116l4,60.57A1.26,1.26,0,0,0,121.26,382.67Z" style="fill:#f0f0f0"></path><rect x="82.54" y="285.37" width="5.36" height="28.32" style="fill:#f0f0f0"></rect><rect x="106.24" y="285.37" width="5.36" height="28.32" style="fill:#f0f0f0"></rect><path d="M129.75,319.73c0,6.26-14.48,5.67-32.34,5.67s-32.35.59-32.35-5.67,14.48-11.34,32.35-11.34S129.75,313.46,129.75,319.73Z" style="fill:#f5f5f5"></path><path d="M112.79,288.45H82a9.32,9.32,0,0,1-9.29-8.59l-1-12.28a9.32,9.32,0,0,1,9.29-10h32.69a9.31,9.31,0,0,1,9.29,10l-1,12.28A9.31,9.31,0,0,1,112.79,288.45Z" style="fill:#f5f5f5"></path><rect x="68.53" y="172.12" width="36.33" height="28.64" style="fill:#f0f0f0"></rect><rect x="66.57" y="172.12" width="1.96" height="28.64" style="fill:#e0e0e0"></rect><rect x="72.23" y="175.04" width="28.92" height="22.8" style="fill:#fafafa"></rect><rect x="74.62" y="176.92" width="24.16" height="19.05" style="fill:#ebebeb"></rect><rect x="112.35" y="125.64" width="39.99" height="50.71" style="fill:#ebebeb"></rect><rect x="110.44" y="125.64" width="1.91" height="50.71" style="fill:#e0e0e0"></rect><rect x="116.43" y="130.81" width="31.83" height="40.37" style="fill:#f5f5f5"></rect><rect x="119.05" y="134.14" width="26.59" height="33.73" style="fill:#fafafa"></rect><path d="M127.08,146s4.7,6.65,7.12,6.54c2.21-.09,6-6.54,6-6.54s-4.7-6.65-7.12-6.54C130.84,139.59,127.08,146,127.08,146Z" style="fill:#ebebeb"></path><path d="M139.38,160.76c1.39-2.68-5.87-8.31-8.89-8.18-2.77.12-8.54,5.63-7.46,8.18C124.61,164.53,137.5,164.39,139.38,160.76Z" style="fill:#f0f0f0"></path><ellipse cx="79.65" cy="131.84" rx="18.05" ry="25.17" style="fill:#e0e0e0"></ellipse><ellipse cx="81.8" cy="131.84" rx="18.05" ry="25.17" style="fill:#ebebeb"></ellipse><ellipse cx="81.8" cy="131.84" rx="15.38" ry="21.44" style="fill:#e6e6e6"></ellipse><ellipse cx="81.8" cy="131.84" rx="13.74" ry="19.16" style="fill:#fafafa"></ellipse><path d="M86.11,142.25a13.77,13.77,0,0,0,4.24-10.66s-5.67-.67-5.5,8.83c0,0-6.39-6.63-4.5-10.83,3-6.57,3-6.57.86-10.67,0,0-5.57,2.25-3,9.83a23.6,23.6,0,0,0,.89,5.84s-5.61-5.38-7.42-1.86c0,0,3,5.69,7.42,3.33C79.07,136.06,84,144.77,86.11,142.25Z" style="fill:#ebebeb"></path></g><g id="freepik--Shadow--inject-2"><ellipse id="freepik--path--inject-2" cx="245.18" cy="412.39" rx="193.89" ry="11.32" style="fill:#f5f5f5"></ellipse></g><g id="freepik--Device--inject-2"><path d="M287.81,405.43H193.42a10.66,10.66,0,0,1-10.79-11.82l20.74-237a13.16,13.16,0,0,1,12.86-11.83h94.39a10.66,10.66,0,0,1,10.79,11.83l-20.74,237A13.16,13.16,0,0,1,287.81,405.43Z" style="fill:#6C63FF;opacity:0.30000000000000004"></path><path d="M310.62,144.74H216.23a13.16,13.16,0,0,0-12.86,11.83l-20.74,237a10.66,10.66,0,0,0,10.79,11.82h94.39a13.16,13.16,0,0,0,12.86-11.82l20.74-237A10.66,10.66,0,0,0,310.62,144.74Zm-15.2,248.87a7.32,7.32,0,0,1-7.15,6.57H193.88a5.93,5.93,0,0,1-6-6.57l20.74-237a7.32,7.32,0,0,1,7.15-6.58h94.39a5.93,5.93,0,0,1,6,6.58Z" style="fill:#6C63FF"></path><path d="M310.62,144.74H216.23a13.16,13.16,0,0,0-12.86,11.83l-20.74,237a10.66,10.66,0,0,0,10.79,11.82h94.39a13.16,13.16,0,0,0,12.86-11.82l20.74-237A10.66,10.66,0,0,0,310.62,144.74Zm-15.2,248.87a7.32,7.32,0,0,1-7.15,6.57H193.88a5.93,5.93,0,0,1-6-6.57l20.74-237a7.32,7.32,0,0,1,7.15-6.58h94.39a5.93,5.93,0,0,1,6,6.58Z" style="fill:#fff;opacity:0.6000000000000001"></path><path d="M254.79,390.79h-26a1.62,1.62,0,0,0-1.58,1.46,1.31,1.31,0,0,0,1.33,1.45h26a1.62,1.62,0,0,0,1.59-1.45A1.32,1.32,0,0,0,254.79,390.79Z" style="fill:#fff"></path><path d="M254.15,255H226.63a6.22,6.22,0,0,1-6.3-6.9l2.41-27.53a7.68,7.68,0,0,1,7.5-6.9h27.53a6.23,6.23,0,0,1,6.3,6.9l-2.41,27.53A7.68,7.68,0,0,1,254.15,255Z" style="opacity:0.1"></path><path d="M251.15,252H223.63a6.22,6.22,0,0,1-6.3-6.9l2.41-27.53a7.68,7.68,0,0,1,7.5-6.9h27.53a6.23,6.23,0,0,1,6.3,6.9l-2.41,27.53A7.68,7.68,0,0,1,251.15,252Z" style="fill:#6C63FF"></path><path d="M243.82,228.82c.47-5.34-4-9.66-10.1-9.66s-11.32,4.32-11.78,9.66c-.37,4.21,2.38,7.79,6.53,9.1a5.92,5.92,0,0,1-2.62,2.59,3.68,3.68,0,0,0,.63.31,5.07,5.07,0,0,0,6-2.37C238.32,238.25,243.37,234,243.82,228.82Z" style="fill:#fff"></path><path d="M256.49,233.44c.39-4.4-3.34-8-8.33-8a10.58,10.58,0,0,0-2.6.33,10.42,10.42,0,0,1,.19,3,12.44,12.44,0,0,1-6,9.29,8.46,8.46,0,0,0,6.38,3.27,3.26,3.26,0,0,0,4.22,1.89,4.83,4.83,0,0,0,.52-.23,3.58,3.58,0,0,1-1.61-1.94C253.13,240.15,256.17,237.09,256.49,233.44Z" style="fill:#fff"></path><path d="M241.53,340.2H221.06a4.63,4.63,0,0,1-4.69-5.13l1.79-20.47a5.72,5.72,0,0,1,5.59-5.14h20.47a4.63,4.63,0,0,1,4.69,5.14l-1.79,20.47A5.71,5.71,0,0,1,241.53,340.2Z" style="opacity:0.1"></path><path d="M271.57,300.36H246a5.78,5.78,0,0,1-5.85-6.42l2.23-25.59a7.15,7.15,0,0,1,7-6.42h25.6a5.79,5.79,0,0,1,5.85,6.42l-2.23,25.59A7.15,7.15,0,0,1,271.57,300.36Z" style="opacity:0.1"></path><path d="M268.57,297.36H243a5.78,5.78,0,0,1-5.85-6.42l2.23-25.59a7.15,7.15,0,0,1,7-6.42h25.6a5.79,5.79,0,0,1,5.85,6.42l-2.23,25.59A7.15,7.15,0,0,1,268.57,297.36Z" style="fill:#6C63FF"></path><path d="M238.53,337.2H218.06a4.63,4.63,0,0,1-4.69-5.13l1.79-20.47a5.72,5.72,0,0,1,5.59-5.14h20.47a4.63,4.63,0,0,1,4.69,5.14l-1.79,20.47A5.71,5.71,0,0,1,238.53,337.2Z" style="fill:#6C63FF"></path><path d="M270.25,267.59H246.5a3,3,0,0,0-3,2.73L242.17,286a2.46,2.46,0,0,0,2.49,2.72H268.4a3,3,0,0,0,3-2.72l1.37-15.66A2.46,2.46,0,0,0,270.25,267.59Zm-18.19,10.54-7.95,7.31,1.28-14.62Zm-5.22-8.65h22.73l-11.49,10.57a1.12,1.12,0,0,1-1.59,0Zm6.44,10,1.75,1.92a2.76,2.76,0,0,0,2.06.88,3.27,3.27,0,0,0,2.21-.88l2.09-1.92,6.7,7.34H245.3Zm9.56-1.34,8-7.31-1.28,14.62Z" style="fill:#fff"></path><polygon points="220.25 316.32 226.25 318.76 232.85 314.24 227.89 320.11 231.53 325.25 237.3 310.93 220.25 316.32" style="fill:#fff"></polygon><polygon points="225.84 320.12 228.54 323.42 225.66 323.42 225.84 320.12" style="fill:#fff"></polygon><path d="M223.45,324.43l-.63-.4a7.58,7.58,0,0,1,.61-.85l.57.49A6.86,6.86,0,0,0,223.45,324.43Z" style="fill:#fff"></path><path d="M223.15,329.36a2.72,2.72,0,0,1-1.29-1.6l.72-.2a2,2,0,0,0,1,1.15Zm-.63-2.58-.75-.06a5.36,5.36,0,0,1,.57-1.87l.68.34A4.52,4.52,0,0,0,222.52,326.78Z" style="fill:#fff"></path><path d="M238.27,332l-.74-.13a2.74,2.74,0,0,0,.05-.55,1.3,1.3,0,0,0-.27-.89l.58-.48a2.12,2.12,0,0,1,.44,1.37A4.27,4.27,0,0,1,238.27,332Zm-10.63-1.73-.78,0,0-.75a17.86,17.86,0,0,0,1.79,0l0,.75Zm2-.08,0-.75c.61,0,1.22-.1,1.81-.16l.07.75Zm-3.71,0-.31,0a8.68,8.68,0,0,1-1.55-.35l.24-.71a7.35,7.35,0,0,0,1.41.32l.29,0Zm10.8-.15a5,5,0,0,0-1.66-.24V329a5.6,5.6,0,0,1,1.93.29Zm-4.35-.09-.07-.75c.64-.06,1.26-.11,1.83-.14l0,.75C233.61,329.81,233,329.86,232.37,329.92Z" style="fill:#fff"></path><path d="M237.65,333.9l-.69-.3c.14-.32.26-.63.35-.9l.71.23C237.92,333.23,237.8,333.55,237.65,333.9Z" style="fill:#fff"></path><path d="M265.4,208.07h-23a5.21,5.21,0,0,1-5.27-5.78l2-23a6.43,6.43,0,0,1,6.28-5.78h23a5.21,5.21,0,0,1,5.27,5.78l-2,23A6.43,6.43,0,0,1,265.4,208.07Z" style="opacity:0.1"></path><path d="M262.4,205.07h-23a5.21,5.21,0,0,1-5.27-5.78l2-23a6.43,6.43,0,0,1,6.28-5.78h23a5.21,5.21,0,0,1,5.27,5.78l-2,23A6.43,6.43,0,0,1,262.4,205.07Z" style="fill:#6C63FF"></path><path d="M263.63,192.47a17.12,17.12,0,0,0-14.91-16.34,5.68,5.68,0,0,0-7,1.62c-2,2.43-.22,4,2,5.74s4.21,3.07,6.18.64a5.8,5.8,0,0,0,1.31-3.13,13.43,13.43,0,0,1,7.77,8.52,5.77,5.77,0,0,0-3.22,1c-2.59,1.76-1.45,3.81.1,6.24s2.93,4.31,5.51,2.54A5.72,5.72,0,0,0,263.63,192.47Z" style="fill:#fff"></path><path d="M254,140.76H269.7c.78,0,.88-1.2.11-1.2H254.13c-.77,0-.88,1.2-.11,1.2Z" style="fill:#6C63FF"></path><path d="M275.45,140.76H280c.78,0,.88-1.2.11-1.2h-4.51c-.77,0-.88,1.2-.1,1.2Z" style="fill:#6C63FF"></path><g style="opacity:0.30000000000000004"><path d="M254,140.76H269.7c.78,0,.88-1.2.11-1.2H254.13c-.77,0-.88,1.2-.11,1.2Z" style="fill:#fff"></path></g><g style="opacity:0.30000000000000004"><path d="M275.45,140.76H280c.78,0,.88-1.2.11-1.2h-4.51c-.77,0-.88,1.2-.1,1.2Z" style="fill:#fff"></path></g><path d="M305.7,262.07l-1.38,15.68a.6.6,0,0,0,1.2.1q.68-7.83,1.37-15.68a.6.6,0,0,0-1.19-.1Z" style="fill:#6C63FF"></path><path d="M303.82,283.49l-.39,4.51a.6.6,0,0,0,1.19.1l.39-4.5a.6.6,0,0,0-1.19-.11Z" style="fill:#6C63FF"></path><g style="opacity:0.30000000000000004"><path d="M305.7,262.07l-1.38,15.68a.6.6,0,0,0,1.2.1q.68-7.83,1.37-15.68a.6.6,0,0,0-1.19-.1Z" style="fill:#fff"></path></g><g style="opacity:0.30000000000000004"><path d="M303.82,283.49l-.39,4.51a.6.6,0,0,0,1.19.1l.39-4.5a.6.6,0,0,0-1.19-.11Z" style="fill:#fff"></path></g></g></svg>